<svg xmlns="http://www.w3.org/2000/svg" width="1280" height="820" viewBox="0 0 1280 820">
  <rect width="1280" height="820" fill="#f7f8fb"/>
  <text x="48" y="54" font-family="Arial" font-size="28" fill="#1f2937">/employee/order-support — поддержка заказа</text>
  <rect x="48" y="88" width="1184" height="78" rx="8" fill="#ffffff" stroke="#c9d2e3"/>
  <text x="72" y="134" font-family="Arial" font-size="18" fill="#374151">Поиск заказа и причина поддержки</text>
  <rect x="48" y="196" width="380" height="520" rx="8" fill="#ffffff" stroke="#c9d2e3"/>
  <text x="72" y="236" font-family="Arial" font-size="22" fill="#111827">Сводка заказа</text>
  <rect x="72" y="274" width="300" height="24" fill="#eef2f7"/>
  <rect x="72" y="316" width="300" height="24" fill="#eef2f7"/>
  <rect x="72" y="358" width="300" height="84" fill="#fef3c7" stroke="#f59e0b"/>
  <rect x="464" y="196" width="344" height="520" rx="8" fill="#ffffff" stroke="#c9d2e3"/>
  <text x="488" y="236" font-family="Arial" font-size="22" fill="#111827">Timeline</text>
  <line x1="520" y1="274" x2="520" y2="642" stroke="#94a3b8" stroke-width="4"/>
  <circle cx="520" cy="298" r="10" fill="#2f6fed"/>
  <circle cx="520" cy="398" r="10" fill="#2f6fed"/>
  <circle cx="520" cy="498" r="10" fill="#f59e0b"/>
  <rect x="550" y="286" width="210" height="22" fill="#eef2f7"/>
  <rect x="550" y="386" width="210" height="22" fill="#eef2f7"/>
  <rect x="550" y="486" width="210" height="22" fill="#eef2f7"/>
  <rect x="844" y="196" width="388" height="520" rx="8" fill="#ffffff" stroke="#c9d2e3"/>
  <text x="868" y="236" font-family="Arial" font-size="22" fill="#111827">Действия поддержки</text>
  <rect x="868" y="274" width="300" height="82" fill="#eef2f7"/>
  <rect x="868" y="386" width="260" height="38" rx="6" fill="#2f6fed"/>
  <rect x="868" y="446" width="260" height="38" rx="6" fill="#10b981"/>
  <rect x="868" y="506" width="260" height="38" rx="6" fill="#f59e0b"/>
  <text x="900" y="411" font-family="Arial" font-size="14" fill="#ffffff">Внутренняя заметка</text>
  <text x="900" y="471" font-family="Arial" font-size="14" fill="#ffffff">Корректировка</text>
  <text x="900" y="531" font-family="Arial" font-size="14" fill="#ffffff">Эскалация</text>
</svg>