<svg xmlns="http://www.w3.org/2000/svg" width="1280" height="860" viewBox="0 0 1280 860" role="img" aria-labelledby="title desc">
  <title id="title">Feature 022 - макет карточки партнера сотрудника</title>
  <desc id="desc">Схематичный wireframe без стилей для маршрута /employee/partner-card</desc>
  <rect x="0" y="0" width="1280" height="860" fill="#ffffff" stroke="#111827"/>
  <rect x="24" y="24" width="1232" height="72" fill="none" stroke="#111827"/>
  <text x="48" y="68" font-family="Arial" font-size="24">/employee/partner-card - поиск и карточка партнера</text>
  <rect x="24" y="116" width="1232" height="92" fill="none" stroke="#111827"/>
  <text x="48" y="150" font-family="Arial" font-size="18">Поиск партнера: person number / ФИО / телефон / email / регион</text>
  <rect x="48" y="166" width="760" height="30" fill="none" stroke="#111827"/>
  <text x="824" y="188" font-family="Arial" font-size="14">Кнопка поиска</text>
  <rect x="24" y="228" width="360" height="250" fill="none" stroke="#111827"/>
  <text x="48" y="258" font-family="Arial" font-size="18">Идентификация партнера</text>
  <text x="48" y="294" font-family="Arial" font-size="14">personNumber, displayName, status</text>
  <text x="48" y="324" font-family="Arial" font-size="14">levelName, regionCode, mentor</text>
  <text x="48" y="354" font-family="Arial" font-size="14">maskedPhone, maskedEmail</text>
  <text x="48" y="384" font-family="Arial" font-size="14">registrationDate, lastOrderDate</text>
  <rect x="408" y="228" width="848" height="250" fill="none" stroke="#111827"/>
  <text x="432" y="258" font-family="Arial" font-size="18">KPI и риск-сигналы</text>
  <rect x="432" y="286" width="180" height="64" fill="none" stroke="#111827"/><text x="448" y="324" font-family="Arial" font-size="13">personalVolume</text>
  <rect x="632" y="286" width="180" height="64" fill="none" stroke="#111827"/><text x="648" y="324" font-family="Arial" font-size="13">groupVolume</text>
  <rect x="832" y="286" width="180" height="64" fill="none" stroke="#111827"/><text x="848" y="324" font-family="Arial" font-size="13">orderCount</text>
  <rect x="1032" y="286" width="180" height="64" fill="none" stroke="#111827"/><text x="1048" y="324" font-family="Arial" font-size="13">bonusBalance</text>
  <rect x="432" y="378" width="780" height="72" fill="none" stroke="#111827"/>
  <text x="448" y="420" font-family="Arial" font-size="14">riskSignals: падение активности, открытые претензии, неоплата, WMS hold</text>
  <rect x="24" y="500" width="812" height="300" fill="none" stroke="#111827"/>
  <text x="48" y="532" font-family="Arial" font-size="18">Последние заказы партнера</text>
  <line x1="48" y1="562" x2="812" y2="562" stroke="#111827"/>
  <text x="52" y="586" font-family="Arial" font-size="13">orderNumber | campaign | payment | delivery | total | flags | actions</text>
  <line x1="48" y1="612" x2="812" y2="612" stroke="#111827"/>
  <text x="52" y="638" font-family="Arial" font-size="13">BOG-ORD-022-001 | 2026-C06 | PAID | DELAYED | 12450 | OPEN_CLAIM</text>
  <line x1="48" y1="664" x2="812" y2="664" stroke="#111827"/>
  <text x="52" y="690" font-family="Arial" font-size="13">BOG-ORD-022-002 | 2026-C05 | PAID | DELIVERED | 8390 | NONE</text>
  <rect x="860" y="500" width="396" height="300" fill="none" stroke="#111827"/>
  <text x="884" y="532" font-family="Arial" font-size="18">Связанные переходы</text>
  <text x="884" y="574" font-family="Arial" font-size="14">Order details</text>
  <text x="884" y="614" font-family="Arial" font-size="14">Claim details / create claim</text>
  <text x="884" y="654" font-family="Arial" font-size="14">Support flow</text>
  <text x="884" y="694" font-family="Arial" font-size="14">Bonus wallet</text>
  <text x="884" y="734" font-family="Arial" font-size="14">Partner report</text>
</svg>