<svg xmlns="http://www.w3.org/2000/svg" width="1280" height="760" viewBox="0 0 1280 760" role="img" aria-label="Макет PIM импорт экспорт аудит рекомендации">
  <title>Feature 029 - PIM import/export, audit, merchandising</title>
  <rect width="1280" height="760" fill="#ffffff" stroke="#111827"/>
  <rect x="0" y="0" width="1280" height="64" fill="#f3f4f6" stroke="#111827"/>
  <text x="32" y="40" font-family="Arial" font-size="22">Админ / PIM каталог / Импорт, экспорт, рекомендации, аудит</text>
  <rect x="24" y="88" width="380" height="292" fill="#ffffff" stroke="#111827"/>
  <text x="44" y="120" font-family="Arial" font-size="16">Import job</text>
  <rect x="44" y="146" width="320" height="34" fill="#f9fafb" stroke="#9ca3af"/><text x="56" y="168" font-family="Arial" font-size="13">Тип данных: товары / категории / атрибуты</text>
  <rect x="44" y="194" width="320" height="34" fill="#f9fafb" stroke="#9ca3af"/><text x="56" y="216" font-family="Arial" font-size="13">Файл CSV/XLSX и idempotency key</text>
  <rect x="44" y="244" width="320" height="72" fill="#fff7ed" stroke="#c2410c"/><text x="56" y="272" font-family="Arial" font-size="13">Row-level validation errors</text>
  <rect x="44" y="330" width="132" height="30" fill="#eef2ff" stroke="#4b5563"/><text x="58" y="350" font-family="Arial" font-size="12">Запустить</text>
  <rect x="436" y="88" width="396" height="292" fill="#ffffff" stroke="#111827"/>
  <text x="456" y="120" font-family="Arial" font-size="16">Export catalog</text>
  <rect x="456" y="146" width="336" height="34" fill="#f9fafb" stroke="#9ca3af"/><text x="468" y="168" font-family="Arial" font-size="13">Фильтр: category, status, brand, tag</text>
  <rect x="456" y="194" width="336" height="86" fill="#f9fafb" stroke="#9ca3af"/><text x="468" y="224" font-family="Arial" font-size="13">Summary: products, categories, attributes, media</text><text x="468" y="252" font-family="Arial" font-size="13">checksum и ссылка на файл выгрузки</text>
  <rect x="456" y="300" width="132" height="30" fill="#eef2ff" stroke="#4b5563"/><text x="470" y="320" font-family="Arial" font-size="12">Экспорт</text>
  <rect x="864" y="88" width="392" height="292" fill="#ffffff" stroke="#111827"/>
  <text x="884" y="120" font-family="Arial" font-size="16">Merchandising</text>
  <rect x="884" y="146" width="332" height="180" fill="#f9fafb" stroke="#9ca3af"/>
  <text x="896" y="176" font-family="Arial" font-size="13">Blocks: Новинки, Хиты, Cross-sell</text>
  <text x="896" y="208" font-family="Arial" font-size="13">Placement, productIds, categoryIds, sortOrder</text>
  <text x="896" y="240" font-family="Arial" font-size="13">Status и active window</text>
  <rect x="24" y="408" width="1232" height="296" fill="#ffffff" stroke="#111827"/>
  <text x="44" y="440" font-family="Arial" font-size="16">Audit trail</text>
  <text x="44" y="476" font-family="Arial" font-size="13">Фильтры: productId, categoryId, mediaId, importJobId, actorUserId, actionCode, period, correlationId</text>
  <line x1="24" y1="500" x2="1256" y2="500" stroke="#6b7280"/>
  <text x="44" y="532" font-family="Arial" font-size="13">timestamp | actor | actionCode | entityType | entityId | oldValue | newValue | correlationId</text>
  <line x1="24" y1="552" x2="1256" y2="552" stroke="#d1d5db"/>
  <text x="44" y="584" font-family="Arial" font-size="13">2026-05-01 10:15 | pim-manager | PRODUCT_PUBLISHED | PRODUCT | BOG-SERUM-001 | DRAFT | PUBLISHED | corr-001</text>
</svg>