<svg xmlns="http://www.w3.org/2000/svg" width="1280" height="760" viewBox="0 0 1280 760" role="img" aria-label="Макет PIM категорий и медиа">
  <title>Feature 029 - PIM категории и медиа</title>
  <rect width="1280" height="760" fill="#ffffff" stroke="#111827"/>
  <rect x="0" y="0" width="1280" height="64" fill="#f3f4f6" stroke="#111827"/>
  <text x="32" y="40" font-family="Arial" font-size="22">Админ / PIM каталог / Категории и медиа</text>
  <rect x="24" y="92" width="396" height="612" fill="#ffffff" stroke="#111827"/>
  <text x="44" y="124" font-family="Arial" font-size="16">Tree view категорий</text>
  <text x="64" y="164" font-family="Arial" font-size="13">catalog-root</text>
  <text x="84" y="196" font-family="Arial" font-size="13">Уход за лицом / face-care</text>
  <text x="104" y="228" font-family="Arial" font-size="13">Сыворотки / face-serums</text>
  <text x="104" y="260" font-family="Arial" font-size="13">Кремы / face-creams</text>
  <text x="84" y="292" font-family="Arial" font-size="13">Макияж / makeup</text>
  <rect x="44" y="330" width="144" height="30" fill="#eef2ff" stroke="#4b5563"/><text x="58" y="350" font-family="Arial" font-size="12">Добавить</text>
  <rect x="200" y="330" width="144" height="30" fill="#eef2ff" stroke="#4b5563"/><text x="214" y="350" font-family="Arial" font-size="12">Переместить</text>
  <rect x="448" y="92" width="376" height="612" fill="#ffffff" stroke="#111827"/>
  <text x="468" y="124" font-family="Arial" font-size="16">Форма категории</text>
  <rect x="468" y="150" width="320" height="34" fill="#f9fafb" stroke="#9ca3af"/><text x="480" y="172" font-family="Arial" font-size="13">Slug, name, locale, status</text>
  <rect x="468" y="198" width="320" height="34" fill="#f9fafb" stroke="#9ca3af"/><text x="480" y="220" font-family="Arial" font-size="13">Parent, sortOrder, audience</text>
  <rect x="468" y="246" width="320" height="58" fill="#f9fafb" stroke="#9ca3af"/><text x="480" y="272" font-family="Arial" font-size="13">SEO meta и preview image</text>
  <rect x="468" y="318" width="320" height="58" fill="#f9fafb" stroke="#9ca3af"/><text x="480" y="344" font-family="Arial" font-size="13">Publication window</text>
  <rect x="468" y="394" width="320" height="72" fill="#fff7ed" stroke="#c2410c"/><text x="480" y="421" font-family="Arial" font-size="13">Validation: unique slug, no cycle</text>
  <rect x="852" y="92" width="404" height="612" fill="#ffffff" stroke="#111827"/>
  <text x="872" y="124" font-family="Arial" font-size="16">Медиа товара</text>
  <rect x="872" y="150" width="344" height="54" fill="#f9fafb" stroke="#9ca3af"/><text x="884" y="181" font-family="Arial" font-size="13">Upload: image, gallery, PDF, certificate</text>
  <rect x="872" y="222" width="344" height="230" fill="#f9fafb" stroke="#9ca3af"/>
  <text x="884" y="252" font-family="Arial" font-size="13">Список медиа: usageType, fileName, mimeType</text>
  <text x="884" y="284" font-family="Arial" font-size="13">checksum, size, altText, locale, version</text>
  <text x="884" y="316" font-family="Arial" font-size="13">status: DRAFT / APPROVED / REJECTED</text>
  <rect x="872" y="470" width="160" height="32" fill="#dcfce7" stroke="#166534"/><text x="892" y="491" font-family="Arial" font-size="12">Утвердить</text>
  <rect x="1044" y="470" width="160" height="32" fill="#fee2e2" stroke="#991b1b"/><text x="1064" y="491" font-family="Arial" font-size="12">Отклонить</text>
</svg>