<svg xmlns="http://www.w3.org/2000/svg" width="390" height="1060" viewBox="0 0 390 1060" role="img" aria-label="Схематичный mobile-макет цифрового каталога">
  <rect x="0" y="0" width="390" height="1060" fill="#ffffff"/>
  <text x="20" y="32" font-family="Arial" font-size="16">Цифровой каталог mobile</text>
  <rect x="16" y="52" width="358" height="52" fill="none" stroke="#222"/>
  <text x="28" y="83" font-family="Arial" font-size="13">Шапка: меню, поиск, корзина</text>
  <rect x="16" y="122" width="358" height="86" fill="none" stroke="#222"/>
  <text x="28" y="151" font-family="Arial" font-size="14">Название выпуска</text>
  <text x="28" y="178" font-family="Arial" font-size="12">Период, статус публикации</text>
  <rect x="28" y="188" width="150" height="14" fill="none" stroke="#777"/>
  <rect x="16" y="228" width="358" height="48" fill="none" stroke="#444"/>
  <text x="48" y="258" font-family="Arial" font-size="12">Переключатель: текущий / следующий</text>
  <rect x="16" y="296" width="358" height="82" fill="none" stroke="#222"/>
  <text x="28" y="327" font-family="Arial" font-size="13">Горизонтальный список материалов</text>
  <rect x="28" y="345" width="96" height="22" fill="none" stroke="#777"/>
  <rect x="138" y="345" width="96" height="22" fill="none" stroke="#777"/>
  <rect x="248" y="345" width="96" height="22" fill="none" stroke="#777"/>
  <rect x="16" y="398" width="358" height="408" fill="none" stroke="#222"/>
  <text x="148" y="426" font-family="Arial" font-size="14">PDF viewer</text>
  <rect x="40" y="452" width="310" height="270" fill="none" stroke="#777"/>
  <text x="142" y="592" font-family="Arial" font-size="13">Страница PDF</text>
  <rect x="84" y="548" width="120" height="58" fill="none" stroke="#444"/>
  <text x="98" y="582" font-family="Arial" font-size="11">Зона товара</text>
  <rect x="40" y="742" width="310" height="42" fill="none" stroke="#444"/>
  <text x="76" y="768" font-family="Arial" font-size="12">Назад, номер страницы, вперед</text>
  <rect x="16" y="826" width="358" height="70" fill="none" stroke="#222"/>
  <text x="34" y="856" font-family="Arial" font-size="12">Действия: zoom, reset, download, share</text>
  <rect x="32" y="870" width="60" height="16" fill="none" stroke="#777"/>
  <rect x="106" y="870" width="60" height="16" fill="none" stroke="#777"/>
  <rect x="180" y="870" width="60" height="16" fill="none" stroke="#777"/>
  <rect x="254" y="870" width="60" height="16" fill="none" stroke="#777"/>
  <rect x="16" y="916" width="358" height="54" fill="none" stroke="#777"/>
  <text x="28" y="948" font-family="Arial" font-size="12">Ссылка из интерактивной зоны в карточку товара</text>
  <rect x="16" y="990" width="358" height="48" fill="none" stroke="#777"/>
  <text x="28" y="1019" font-family="Arial" font-size="12">Состояние загрузки / ошибки PDF</text>
</svg>
