<svg xmlns="http://www.w3.org/2000/svg" width="1280" height="820" viewBox="0 0 1280 820">
  <title>Feature 028 admin referral landing workspace layout</title>
  <rect x="0" y="0" width="1280" height="820" fill="#ffffff"/>
  <rect x="0" y="0" width="1280" height="64" fill="#f3f4f6" stroke="#d1d5db"/>
  <text x="32" y="40" font-family="Arial" font-size="22">Admin: лендинги, инвайты и рефералы</text>
  <rect x="0" y="64" width="244" height="756" fill="#f9fafb" stroke="#d1d5db"/>
  <text x="24" y="112" font-family="Arial" font-size="16">Навигация admin</text>
  <text x="24" y="154" font-family="Arial" font-size="14">RBAC</text>
  <text x="24" y="184" font-family="Arial" font-size="14">CMS</text>
  <text x="24" y="214" font-family="Arial" font-size="14">Лендинги и инвайты</text>
  <text x="24" y="244" font-family="Arial" font-size="14">PIM</text>
  <text x="24" y="274" font-family="Arial" font-size="14">Каталоги</text>
  <rect x="276" y="92" width="950" height="52" fill="#ffffff" stroke="#9ca3af"/>
  <text x="300" y="124" font-family="Arial" font-size="15">Tabs: landing variants | registration funnels | referral codes | attribution policy | analytics | audit</text>
  <rect x="276" y="168" width="950" height="92" fill="#ffffff" stroke="#9ca3af"/>
  <text x="300" y="198" font-family="Arial" font-size="16">Фильтры landing variants</text>
  <rect x="300" y="216" width="132" height="28" fill="#ffffff" stroke="#6b7280"/><text x="312" y="235" font-family="Arial" font-size="12">landingType</text>
  <rect x="446" y="216" width="120" height="28" fill="#ffffff" stroke="#6b7280"/><text x="458" y="235" font-family="Arial" font-size="12">status</text>
  <rect x="580" y="216" width="128" height="28" fill="#ffffff" stroke="#6b7280"/><text x="592" y="235" font-family="Arial" font-size="12">locale</text>
  <rect x="722" y="216" width="180" height="28" fill="#ffffff" stroke="#6b7280"/><text x="734" y="235" font-family="Arial" font-size="12">campaign code</text>
  <rect x="916" y="216" width="150" height="28" fill="#ffffff" stroke="#6b7280"/><text x="928" y="235" font-family="Arial" font-size="12">active window</text>
  <rect x="1080" y="212" width="124" height="34" fill="#e5e7eb" stroke="#6b7280"/><text x="1094" y="234" font-family="Arial" font-size="13">Создать</text>
  <rect x="276" y="292" width="950" height="420" fill="#ffffff" stroke="#9ca3af"/>
  <text x="300" y="326" font-family="Arial" font-size="15">Таблица landing variants</text>
  <line x1="300" y1="354" x2="1198" y2="354" stroke="#9ca3af"/>
  <text x="300" y="380" font-family="Arial" font-size="12">Тип</text>
  <text x="410" y="380" font-family="Arial" font-size="12">Название / slug</text>
  <text x="646" y="380" font-family="Arial" font-size="12">Campaign</text>
  <text x="774" y="380" font-family="Arial" font-size="12">Статус</text>
  <text x="890" y="380" font-family="Arial" font-size="12">Активность</text>
  <text x="1056" y="380" font-family="Arial" font-size="12">Действия</text>
  <g font-family="Arial" font-size="12">
    <rect x="300" y="400" width="898" height="56" fill="#ffffff" stroke="#e5e7eb"/>
    <text x="310" y="433">BUSINESS</text><text x="410" y="433">Business spring / business-partner-spring</text><text x="646" y="433">BIZ-SPRING-2026</text><text x="774" y="433">ACTIVE</text><text x="890" y="433">01.05-21.05</text><text x="1056" y="433">edit preview audit</text>
    <rect x="300" y="470" width="898" height="56" fill="#ffffff" stroke="#e5e7eb"/>
    <text x="310" y="503">BEAUTY</text><text x="410" y="503">Beauty intro / beauty-welcome</text><text x="646" y="503">BEAUTY-MAY</text><text x="774" y="503">DRAFT</text><text x="890" y="503">not set</text><text x="1056" y="503">edit activate</text>
    <rect x="300" y="540" width="898" height="56" fill="#ffffff" stroke="#e5e7eb"/>
    <text x="310" y="573">CUSTOMER</text><text x="410" y="573">Customer referral / customer-referral</text><text x="646" y="573">SOCIAL-SELL</text><text x="774" y="573">SCHEDULED</text><text x="890" y="573">15.05-31.05</text><text x="1056" y="573">edit preview</text>
  </g>
  <rect x="276" y="732" width="950" height="48" fill="#f9fafb" stroke="#d1d5db"/>
  <text x="300" y="762" font-family="Arial" font-size="13">Bulk actions: activate, pause, archive, export audit, open conversion report</text>
</svg>
