<svg xmlns="http://www.w3.org/2000/svg" width="1200" height="760" viewBox="0 0 1200 760" role="img" aria-labelledby="title desc">
  <title id="title">Feature 025 notification and offline shell layout</title>
  <desc id="desc">Схематичный макет shell: notification root, offline popup, reconnect notification и область бизнес-страницы.</desc>
  <rect x="24" y="24" width="1152" height="712" fill="#ffffff" stroke="#222222" stroke-width="2"/>
  <rect x="56" y="56" width="1088" height="68" fill="#f5f5f5" stroke="#555555"/>
  <text x="80" y="98" font-family="Arial" font-size="24">Application shell providers: i18n / notification / offline / analytics</text>
  <rect x="56" y="152" width="250" height="520" fill="#ffffff" stroke="#555555"/>
  <text x="80" y="190" font-family="Arial" font-size="20">global navigation</text>
  <rect x="80" y="224" width="190" height="38" fill="#f7f7f7" stroke="#777777"/>
  <text x="96" y="249" font-family="Arial" font-size="15">catalog route</text>
  <rect x="80" y="282" width="190" height="38" fill="#f7f7f7" stroke="#777777"/>
  <text x="96" y="307" font-family="Arial" font-size="15">orders route</text>
  <rect x="80" y="340" width="190" height="38" fill="#f7f7f7" stroke="#777777"/>
  <text x="96" y="365" font-family="Arial" font-size="15">business route</text>
  <rect x="80" y="398" width="190" height="38" fill="#ffffff" stroke="#777777"/>
  <text x="96" y="423" font-family="Arial" font-size="15">language switcher</text>
  <rect x="338" y="152" width="520" height="520" fill="#ffffff" stroke="#555555"/>
  <text x="362" y="190" font-family="Arial" font-size="20">current product flow area</text>
  <rect x="362" y="224" width="450" height="92" fill="#f7f7f7" stroke="#777777"/>
  <text x="386" y="260" font-family="Arial" font-size="17">checkout / claim / partner action form</text>
  <text x="386" y="288" font-family="Arial" font-size="14">entered data remains visible during offline state</text>
  <rect x="362" y="350" width="450" height="160" fill="#ffffff" stroke="#777777"/>
  <text x="386" y="386" font-family="Arial" font-size="17">business content stays readable</text>
  <line x1="386" y1="420" x2="780" y2="420" stroke="#999999"/>
  <line x1="386" y1="456" x2="780" y2="456" stroke="#999999"/>
  <rect x="362" y="548" width="190" height="48" fill="#e8f1ff" stroke="#3366aa"/>
  <text x="384" y="578" font-family="Arial" font-size="16">submit action</text>
  <rect x="890" y="152" width="230" height="150" fill="#fffbe6" stroke="#aa8a00"/>
  <text x="912" y="188" font-family="Arial" font-size="18">platform-notification-root</text>
  <rect x="912" y="214" width="184" height="54" fill="#ffffff" stroke="#777777"/>
  <text x="928" y="246" font-family="Arial" font-size="14">toast / modal stack</text>
  <rect x="890" y="344" width="230" height="132" fill="#fff1f0" stroke="#aa3333"/>
  <text x="912" y="380" font-family="Arial" font-size="18">platform-offline-popup</text>
  <text x="912" y="414" font-family="Arial" font-size="14">offline message from i18n</text>
  <text x="912" y="442" font-family="Arial" font-size="14">blocks unsafe network actions</text>
  <rect x="890" y="520" width="230" height="104" fill="#f6ffed" stroke="#447744"/>
  <text x="912" y="556" font-family="Arial" font-size="18">reconnect notification</text>
  <text x="912" y="590" font-family="Arial" font-size="14">safe restore after session check</text>
  <path d="M858 222 H890" stroke="#222222" stroke-width="2" marker-end="url(#arrow)"/>
  <path d="M858 410 H890" stroke="#222222" stroke-width="2" marker-end="url(#arrow)"/>
  <defs>
    <marker id="arrow" markerWidth="10" markerHeight="10" refX="8" refY="3" orient="auto" markerUnits="strokeWidth">
      <path d="M0,0 L0,6 L9,3 z" fill="#222222"/>
    </marker>
  </defs>
</svg>
