<svg xmlns="http://www.w3.org/2000/svg" width="390" height="844" viewBox="0 0 390 844" role="img" aria-labelledby="title desc">
  <title id="title">Макет документов mobile</title>
  <desc id="desc">Схематичный мобильный макет списка документов с PDF viewer и архивом версий.</desc>
  <rect width="390" height="844" fill="#ffffff"/>
  <rect x="0" y="0" width="390" height="64" fill="#f5f7fb"/>
  <text x="20" y="40" font-family="Arial" font-size="20" fill="#111827">Best Ori Gin</text>
  <text x="304" y="40" font-family="Arial" font-size="16" fill="#374151">Меню</text>
  <text x="20" y="100" font-family="Arial" font-size="13" fill="#64748b">Главная / Документы</text>
  <text x="20" y="144" font-family="Arial" font-size="28" fill="#111827">Документы</text>
  <text x="20" y="174" font-family="Arial" font-size="15" fill="#4b5563">Актуальные файлы и архив редакций.</text>
  <rect x="20" y="206" width="350" height="48" rx="6" fill="#ffffff" stroke="#cbd5e1"/>
  <text x="40" y="236" font-family="Arial" font-size="15" fill="#374151">Тип: договоры и правила</text>
  <rect x="20" y="282" width="350" height="172" rx="8" fill="#f8fafc" stroke="#e5e7eb"/>
  <text x="40" y="320" font-family="Arial" font-size="18" fill="#111827">Пользовательский договор</text>
  <text x="40" y="350" font-family="Arial" font-size="14" fill="#4b5563">Версия 2.1 · 26.04.2026</text>
  <text x="40" y="380" font-family="Arial" font-size="14" fill="#1f7a5b">Актуальная редакция</text>
  <rect x="40" y="404" width="128" height="34" rx="6" fill="#1f7a5b"/>
  <text x="65" y="426" font-family="Arial" font-size="14" fill="#ffffff">Смотреть</text>
  <rect x="182" y="404" width="128" height="34" rx="6" fill="#ffffff" stroke="#1f7a5b"/>
  <text x="208" y="426" font-family="Arial" font-size="14" fill="#1f7a5b">Скачать</text>
  <rect x="20" y="476" width="350" height="220" rx="8" fill="#ffffff" stroke="#e5e7eb"/>
  <text x="40" y="514" font-family="Arial" font-size="18" fill="#111827">PDF viewer</text>
  <rect x="40" y="538" width="310" height="120" rx="4" fill="#e5e7eb"/>
  <text x="134" y="604" font-family="Arial" font-size="15" fill="#64748b">Предпросмотр PDF</text>
  <text x="40" y="738" font-family="Arial" font-size="18" fill="#111827">Архив версий</text>
  <text x="40" y="772" font-family="Arial" font-size="14" fill="#4b5563">Версия 2.0 · 01.04.2026</text>
</svg>
