<svg xmlns="http://www.w3.org/2000/svg" width="1440" height="980" viewBox="0 0 1440 980" role="img" aria-labelledby="title desc">
  <title id="title">Feature 033. Дозаказы, split/merge и аудит</title>
  <desc id="desc">Схематичный макет административных операций supplementary order, split/merge и audit trail.</desc>
  <rect width="1440" height="980" fill="#f5f7fa"/>
  <rect x="0" y="0" width="1440" height="64" fill="#182230"/>
  <text x="32" y="40" font-family="Arial" font-size="22" fill="#ffffff">Best Ori Gin Admin</text>
  <text x="1210" y="40" font-family="Arial" font-size="16" fill="#d9e2ec">Order support</text>

  <text x="48" y="112" font-family="Arial" font-size="28" font-weight="700" fill="#111827">Дозаказы, split/merge и аудит заказа</text>
  <text x="48" y="142" font-family="Arial" font-size="15" fill="#667085">Операторские сценарии с проверкой каталога, склада, оплаты, антифрода и audit reason</text>

  <rect x="48" y="176" width="430" height="720" rx="8" fill="#ffffff" stroke="#d0d5dd"/>
  <text x="72" y="212" font-family="Arial" font-size="18" font-weight="700" fill="#111827">Создание дозаказа</text>
  <text x="72" y="248" font-family="Arial" font-size="13" fill="#475467">Parent order</text>
  <rect x="72" y="260" width="356" height="38" rx="4" fill="#eff6ff" stroke="#93c5fd"/>
  <text x="90" y="284" font-family="Arial" font-size="13" fill="#1d4ed8">BO-033-1001 • DELIVERED • CAT-033</text>
  <text x="72" y="332" font-family="Arial" font-size="13" fill="#475467">Добавить SKU</text>
  <rect x="72" y="344" width="356" height="38" rx="4" fill="#f9fafb" stroke="#cbd5e1"/>
  <text x="90" y="368" font-family="Arial" font-size="13" fill="#667085">SKU / название / штрихкод</text>
  <rect x="72" y="406" width="356" height="82" rx="4" fill="#ffffff" stroke="#e5e7eb"/>
  <text x="90" y="436" font-family="Arial" font-size="14" fill="#111827">SKU-033-ADDON • Крем ночной</text>
  <text x="90" y="462" font-family="Arial" font-size="13" fill="#047857">Доступно: 42 • Цена: 1 890 ₽ • Лимит: OK</text>
  <text x="72" y="530" font-family="Arial" font-size="13" fill="#475467">Проверки</text>
  <text x="72" y="560" font-family="Arial" font-size="13" fill="#047857">✓ каталог активен</text>
  <text x="72" y="584" font-family="Arial" font-size="13" fill="#047857">✓ SKU доступен на складе WH-033</text>
  <text x="72" y="608" font-family="Arial" font-size="13" fill="#047857">✓ anti-fraud policy passed</text>
  <text x="72" y="632" font-family="Arial" font-size="13" fill="#047857">✓ financial invariant valid</text>
  <text x="72" y="690" font-family="Arial" font-size="13" fill="#475467">reasonCode</text>
  <rect x="72" y="704" width="356" height="38" rx="4" fill="#f9fafb" stroke="#cbd5e1"/>
  <text x="90" y="728" font-family="Arial" font-size="13" fill="#111827">CUSTOMER_REQUEST</text>
  <rect x="72" y="788" width="356" height="44" rx="4" fill="#2563eb"/>
  <text x="188" y="816" font-family="Arial" font-size="14" fill="#ffffff">Создать дозаказ</text>

  <rect x="506" y="176" width="430" height="720" rx="8" fill="#ffffff" stroke="#d0d5dd"/>
  <text x="530" y="212" font-family="Arial" font-size="18" font-weight="700" fill="#111827">Split / merge fulfillment</text>
  <rect x="530" y="250" width="358" height="108" rx="6" fill="#f9fafb" stroke="#e5e7eb"/>
  <text x="552" y="282" font-family="Arial" font-size="15" font-weight="700" fill="#111827">Исходный заказ</text>
  <text x="552" y="310" font-family="Arial" font-size="13" fill="#475467">8 SKU • 12 480 ₽ • WH-033</text>
  <text x="552" y="334" font-family="Arial" font-size="13" fill="#475467">reserve CONFIRMED • delivery courier</text>
  <line x1="710" y1="376" x2="710" y2="438" stroke="#94a3b8" stroke-width="2"/>
  <polygon points="710,452 700,434 720,434" fill="#94a3b8"/>
  <rect x="530" y="466" width="164" height="128" rx="6" fill="#eff6ff" stroke="#93c5fd"/>
  <text x="552" y="496" font-family="Arial" font-size="14" font-weight="700" fill="#1d4ed8">Group A</text>
  <text x="552" y="524" font-family="Arial" font-size="13" fill="#475467">5 SKU</text>
  <text x="552" y="548" font-family="Arial" font-size="13" fill="#475467">WH-033</text>
  <text x="552" y="572" font-family="Arial" font-size="13" fill="#047857">READY</text>
  <rect x="724" y="466" width="164" height="128" rx="6" fill="#fff7ed" stroke="#fdba74"/>
  <text x="746" y="496" font-family="Arial" font-size="14" font-weight="700" fill="#9a3412">Group B</text>
  <text x="746" y="524" font-family="Arial" font-size="13" fill="#475467">3 SKU</text>
  <text x="746" y="548" font-family="Arial" font-size="13" fill="#475467">WH-017</text>
  <text x="746" y="572" font-family="Arial" font-size="13" fill="#b45309">PARTIAL</text>
  <text x="530" y="658" font-family="Arial" font-size="13" fill="#475467">Проверка инвариантов</text>
  <rect x="530" y="676" width="358" height="68" rx="4" fill="#ecfdf5" stroke="#86efac"/>
  <text x="550" y="704" font-family="Arial" font-size="13" fill="#166534">Сумма до split = сумма после split</text>
  <text x="550" y="728" font-family="Arial" font-size="13" fill="#166534">Скидки, бонусы и refund limits согласованы</text>
  <rect x="530" y="788" width="166" height="44" rx="4" fill="#2563eb"/>
  <text x="588" y="816" font-family="Arial" font-size="14" fill="#ffffff">Split</text>
  <rect x="724" y="788" width="164" height="44" rx="4" fill="#ffffff" stroke="#cbd5e1"/>
  <text x="778" y="816" font-family="Arial" font-size="14" fill="#344054">Merge</text>

  <rect x="964" y="176" width="428" height="720" rx="8" fill="#ffffff" stroke="#d0d5dd"/>
  <text x="988" y="212" font-family="Arial" font-size="18" font-weight="700" fill="#111827">Audit trail</text>
  <rect x="988" y="244" width="356" height="38" rx="4" fill="#f9fafb" stroke="#cbd5e1"/>
  <text x="1006" y="268" font-family="Arial" font-size="13" fill="#667085">orderId / paymentId / actor / action / correlationId</text>
  <rect x="988" y="306" width="356" height="78" rx="4" fill="#f8fafc" stroke="#e5e7eb"/>
  <text x="1006" y="334" font-family="Arial" font-size="13" font-weight="700" fill="#111827">00:04 SUPPORT_NOTE_UPDATED</text>
  <text x="1006" y="358" font-family="Arial" font-size="12" fill="#667085">actor support-agent • reason CUSTOMER_CONTACT_UPDATE</text>
  <rect x="988" y="400" width="356" height="78" rx="4" fill="#f8fafc" stroke="#e5e7eb"/>
  <text x="1006" y="428" font-family="Arial" font-size="13" font-weight="700" fill="#111827">00:07 SUPPLEMENTARY_ORDER_CREATED</text>
  <text x="1006" y="452" font-family="Arial" font-size="12" fill="#667085">parent BO-033-1001 • child BO-033-1001-S1</text>
  <rect x="988" y="494" width="356" height="78" rx="4" fill="#f8fafc" stroke="#e5e7eb"/>
  <text x="1006" y="522" font-family="Arial" font-size="13" font-weight="700" fill="#111827">00:09 FINANCIAL_INVARIANT_CHECKED</text>
  <text x="1006" y="546" font-family="Arial" font-size="12" fill="#667085">result PASSED • correlation ORD-033-INV-1</text>
  <rect x="988" y="612" width="356" height="84" rx="4" fill="#f9fafb" stroke="#cbd5e1"/>
  <text x="1006" y="642" font-family="Arial" font-size="13" fill="#475467">Экспорт с учетом прав доступа</text>
  <text x="1006" y="666" font-family="Arial" font-size="12" fill="#667085">CSV/Excel • filters snapshot • requestedBy</text>
  <rect x="988" y="736" width="160" height="42" rx="4" fill="#2563eb"/>
  <text x="1030" y="762" font-family="Arial" font-size="14" fill="#ffffff">Экспорт</text>
  <rect x="1178" y="736" width="166" height="42" rx="4" fill="#ffffff" stroke="#cbd5e1"/>
  <text x="1214" y="762" font-family="Arial" font-size="14" fill="#344054">Открыть событие</text>
</svg>
