<svg xmlns="http://www.w3.org/2000/svg" width="1440" height="980" viewBox="0 0 1440 980" role="img" aria-labelledby="title desc">
  <title id="title">Feature 033. Платежи, возвраты и антифрод</title>
  <desc id="desc">Схематичный макет административного рабочего места финансового оператора и антифрод-администратора.</desc>
  <rect width="1440" height="980" fill="#f7f7fb"/>
  <rect x="0" y="0" width="1440" height="64" fill="#182230"/>
  <text x="32" y="40" font-family="Arial" font-size="22" fill="#ffffff">Best Ori Gin Admin</text>
  <text x="1218" y="40" font-family="Arial" font-size="16" fill="#d9e2ec">Финансовый оператор</text>

  <rect x="32" y="94" width="1376" height="72" rx="8" fill="#ffffff" stroke="#d0d5dd"/>
  <text x="56" y="126" font-family="Arial" font-size="24" font-weight="700" fill="#111827">Платежи, возвраты и антифрод по заказу BO-033-1001</text>
  <text x="56" y="150" font-family="Arial" font-size="14" fill="#667085">Единое окно контроля payment events, refund, dispute, chargeback и risk decisions</text>
  <rect x="1120" y="112" width="124" height="36" rx="4" fill="#fef3c7" stroke="#f59e0b"/>
  <text x="1142" y="135" font-family="Arial" font-size="13" fill="#92400e">Risk review</text>
  <rect x="1260" y="112" width="116" height="36" rx="4" fill="#dcfce7" stroke="#22c55e"/>
  <text x="1283" y="135" font-family="Arial" font-size="13" fill="#166534">Paid</text>

  <rect x="32" y="194" width="420" height="700" rx="8" fill="#ffffff" stroke="#d0d5dd"/>
  <text x="56" y="230" font-family="Arial" font-size="18" font-weight="700" fill="#111827">Payment timeline</text>
  <line x1="78" y1="270" x2="78" y2="760" stroke="#cbd5e1" stroke-width="2"/>
  <circle cx="78" cy="300" r="8" fill="#22c55e"/>
  <text x="104" y="306" font-family="Arial" font-size="14" fill="#111827">AUTHORIZATION • EXT-PAY-033-1</text>
  <text x="104" y="328" font-family="Arial" font-size="12" fill="#667085">12 480 RUB • idempotency IDEMP-033-1</text>
  <circle cx="78" cy="390" r="8" fill="#22c55e"/>
  <text x="104" y="396" font-family="Arial" font-size="14" fill="#111827">CAPTURE • provider OK</text>
  <text x="104" y="418" font-family="Arial" font-size="12" fill="#667085">correlationId ORD-033-CAPTURE-1</text>
  <circle cx="78" cy="480" r="8" fill="#f59e0b"/>
  <text x="104" y="486" font-family="Arial" font-size="14" fill="#111827">RISK_RULE_TRIGGERED</text>
  <text x="104" y="508" font-family="Arial" font-size="12" fill="#667085">score 64 • manual review required</text>
  <circle cx="78" cy="570" r="8" fill="#64748b"/>
  <text x="104" y="576" font-family="Arial" font-size="14" fill="#111827">REFUND available</text>
  <text x="104" y="598" font-family="Arial" font-size="12" fill="#667085">available amount 12 480 RUB</text>

  <rect x="484" y="194" width="452" height="330" rx="8" fill="#ffffff" stroke="#d0d5dd"/>
  <text x="508" y="230" font-family="Arial" font-size="18" font-weight="700" fill="#111827">Refund operation</text>
  <text x="508" y="266" font-family="Arial" font-size="13" fill="#475467">Тип операции</text>
  <rect x="508" y="278" width="180" height="38" rx="4" fill="#f9fafb" stroke="#cbd5e1"/>
  <text x="524" y="302" font-family="Arial" font-size="13" fill="#111827">PARTIAL_REFUND</text>
  <text x="712" y="266" font-family="Arial" font-size="13" fill="#475467">Сумма</text>
  <rect x="712" y="278" width="180" height="38" rx="4" fill="#f9fafb" stroke="#cbd5e1"/>
  <text x="728" y="302" font-family="Arial" font-size="13" fill="#111827">2 500.00 RUB</text>
  <text x="508" y="348" font-family="Arial" font-size="13" fill="#475467">Причина</text>
  <rect x="508" y="360" width="384" height="38" rx="4" fill="#f9fafb" stroke="#cbd5e1"/>
  <text x="524" y="384" font-family="Arial" font-size="13" fill="#111827">PARTIAL_CANCEL</text>
  <text x="508" y="430" font-family="Arial" font-size="13" fill="#475467">Проверки перед запуском</text>
  <text x="508" y="458" font-family="Arial" font-size="13" fill="#047857">✓ amount ≤ available refund amount</text>
  <text x="508" y="482" font-family="Arial" font-size="13" fill="#047857">✓ order financial invariant valid</text>
  <rect x="760" y="462" width="132" height="38" rx="4" fill="#2563eb"/>
  <text x="787" y="486" font-family="Arial" font-size="13" fill="#ffffff">Запустить</text>

  <rect x="484" y="552" width="452" height="342" rx="8" fill="#ffffff" stroke="#d0d5dd"/>
  <text x="508" y="588" font-family="Arial" font-size="18" font-weight="700" fill="#111827">Dispute / chargeback</text>
  <rect x="508" y="620" width="384" height="48" rx="4" fill="#fff7ed" stroke="#fdba74"/>
  <text x="524" y="650" font-family="Arial" font-size="14" fill="#9a3412">Нет активных dispute по заказу</text>
  <text x="508" y="706" font-family="Arial" font-size="13" fill="#475467">Новый dispute</text>
  <rect x="508" y="718" width="180" height="38" rx="4" fill="#f9fafb" stroke="#cbd5e1"/>
  <text x="524" y="742" font-family="Arial" font-size="13" fill="#111827">Provider case id</text>
  <rect x="712" y="718" width="180" height="38" rx="4" fill="#f9fafb" stroke="#cbd5e1"/>
  <text x="728" y="742" font-family="Arial" font-size="13" fill="#111827">Reason code</text>
  <rect x="508" y="784" width="384" height="52" rx="4" fill="#f9fafb" stroke="#cbd5e1"/>
  <text x="524" y="814" font-family="Arial" font-size="13" fill="#667085">Комментарий и документы-основания</text>

  <rect x="968" y="194" width="440" height="700" rx="8" fill="#ffffff" stroke="#d0d5dd"/>
  <text x="992" y="230" font-family="Arial" font-size="18" font-weight="700" fill="#111827">Антифрод-сводка</text>
  <text x="992" y="266" font-family="Arial" font-size="14" fill="#475467">Risk score</text>
  <rect x="992" y="282" width="368" height="24" rx="12" fill="#fee2e2"/>
  <rect x="992" y="282" width="236" height="24" rx="12" fill="#f59e0b"/>
  <text x="1370" y="302" font-family="Arial" font-size="13" fill="#111827">64</text>
  <text x="992" y="348" font-family="Arial" font-size="15" font-weight="700" fill="#111827">Сработавшие правила</text>
  <rect x="992" y="366" width="370" height="42" rx="4" fill="#f9fafb" stroke="#e5e7eb"/>
  <text x="1010" y="392" font-family="Arial" font-size="13" fill="#111827">MULTIPLE_SUPPLEMENTARY_ORDERS</text>
  <rect x="992" y="418" width="370" height="42" rx="4" fill="#f9fafb" stroke="#e5e7eb"/>
  <text x="1010" y="444" font-family="Arial" font-size="13" fill="#111827">PAYMENT_PROVIDER_DELAY</text>
  <text x="992" y="506" font-family="Arial" font-size="15" font-weight="700" fill="#111827">Решение</text>
  <rect x="992" y="528" width="166" height="38" rx="4" fill="#dcfce7" stroke="#22c55e"/>
  <text x="1038" y="552" font-family="Arial" font-size="13" fill="#166534">APPROVED</text>
  <rect x="1178" y="528" width="166" height="38" rx="4" fill="#ffffff" stroke="#cbd5e1"/>
  <text x="1224" y="552" font-family="Arial" font-size="13" fill="#344054">REJECTED</text>
  <rect x="992" y="588" width="352" height="74" rx="4" fill="#f9fafb" stroke="#cbd5e1"/>
  <text x="1010" y="616" font-family="Arial" font-size="13" fill="#667085">reasonCode: MANUAL_REVIEW_PASSED</text>
  <text x="1010" y="640" font-family="Arial" font-size="13" fill="#667085">audit: actor, timestamp, correlationId</text>
  <rect x="992" y="704" width="352" height="44" rx="4" fill="#2563eb"/>
  <text x="1112" y="731" font-family="Arial" font-size="14" fill="#ffffff">Сохранить решение</text>
</svg>
