<svg xmlns="http://www.w3.org/2000/svg" width="1280" height="1200" viewBox="0 0 1280 1200" role="img" aria-labelledby="title desc">
  <title id="title">Макет: публичная community-страница Best Ori Gin</title>
  <desc id="desc">Схематичный макет страницы community с header, обзором, новостями, CTA и footer.</desc>
  <rect x="0" y="0" width="1280" height="1200" fill="#ffffff"/>
  <rect x="60" y="28" width="1160" height="80" fill="none" stroke="#111111" stroke-width="2"/>
  <text x="88" y="76" font-family="Arial" font-size="22">Header: логотип, каталог, новости, FAQ, community, вход, корзина</text>

  <rect x="60" y="150" width="1160" height="250" fill="none" stroke="#111111" stroke-width="2"/>
  <text x="100" y="224" font-family="Arial" font-size="28">Community overview из CMS</text>
  <text x="100" y="270" font-family="Arial" font-size="20">Описание сообщества, ценность участия, текущая кампания</text>
  <rect x="100" y="312" width="220" height="56" fill="none" stroke="#111111" stroke-width="2"/>
  <text x="130" y="348" font-family="Arial" font-size="20">Присоединиться</text>
  <rect x="350" y="312" width="220" height="56" fill="none" stroke="#111111" stroke-width="2"/>
  <text x="382" y="348" font-family="Arial" font-size="20">Новости</text>

  <text x="60" y="470" font-family="Arial" font-size="28">Материалы сообщества</text>
  <rect x="60" y="510" width="360" height="220" fill="none" stroke="#111111" stroke-width="2"/>
  <text x="100" y="624" font-family="Arial" font-size="22">Новость</text>
  <rect x="460" y="510" width="360" height="220" fill="none" stroke="#111111" stroke-width="2"/>
  <text x="500" y="624" font-family="Arial" font-size="22">История партнера</text>
  <rect x="860" y="510" width="360" height="220" fill="none" stroke="#111111" stroke-width="2"/>
  <text x="900" y="624" font-family="Arial" font-size="22">Событие</text>

  <text x="60" y="820" font-family="Arial" font-size="28">Связанные переходы</text>
  <rect x="60" y="860" width="270" height="120" fill="none" stroke="#111111" stroke-width="2"/>
  <text x="98" y="928" font-family="Arial" font-size="20">Регистрация партнера</text>
  <rect x="365" y="860" width="270" height="120" fill="none" stroke="#111111" stroke-width="2"/>
  <text x="420" y="928" font-family="Arial" font-size="20">Benefits</text>
  <rect x="670" y="860" width="270" height="120" fill="none" stroke="#111111" stroke-width="2"/>
  <text x="730" y="928" font-family="Arial" font-size="20">Каталог</text>
  <rect x="975" y="860" width="245" height="120" fill="none" stroke="#111111" stroke-width="2"/>
  <text x="1030" y="928" font-family="Arial" font-size="20">FAQ</text>

  <rect x="60" y="1040" width="1160" height="100" fill="none" stroke="#111111" stroke-width="2"/>
  <text x="88" y="1098" font-family="Arial" font-size="20">Footer: документы, FAQ, контакты, партнерские материалы, юридическая информация</text>
</svg>
