<svg xmlns="http://www.w3.org/2000/svg" width="1440" height="960" viewBox="0 0 1440 960">
  <title>Feature 035. Макет 02. Карточка партнера и сотрудника</title>
  <rect width="1440" height="960" fill="#f6f7f9"/>
  <rect x="0" y="0" width="1440" height="64" fill="#1f2933"/>
  <text x="32" y="40" font-family="Arial" font-size="22" fill="#ffffff">Best Ori Gin Admin</text>
  <rect x="40" y="96" width="1360" height="88" rx="6" fill="#ffffff" stroke="#d1d5db"/>
  <text x="72" y="132" font-family="Arial" font-size="24" fill="#111827">PTR-035-1001 / Мария С.</text>
  <text x="72" y="160" font-family="Arial" font-size="14" fill="#4b5563">Партнер уровня Leader. Sponsor SP-035-A. Office 17. Статус ACTIVE.</text>
  <rect x="1130" y="116" width="112" height="36" rx="4" fill="#f59e0b"/>
  <text x="1154" y="139" font-family="Arial" font-size="13" fill="#111827">Изменить</text>
  <rect x="1258" y="116" width="112" height="36" rx="4" fill="#ef4444"/>
  <text x="1278" y="139" font-family="Arial" font-size="13" fill="#ffffff">Блокировать</text>
  <rect x="40" y="216" width="320" height="644" rx="6" fill="#ffffff" stroke="#d1d5db"/>
  <text x="68" y="252" font-family="Arial" font-size="17" fill="#111827">Профиль и PII</text>
  <text x="68" y="292" font-family="Arial" font-size="13" fill="#4b5563">Телефон: +7 *** ***-12-35</text>
  <text x="68" y="324" font-family="Arial" font-size="13" fill="#4b5563">Email: ma***@example.test</text>
  <text x="68" y="356" font-family="Arial" font-size="13" fill="#4b5563">Документы: скрыто scope</text>
  <line x1="68" y1="388" x2="332" y2="388" stroke="#e5e7eb"/>
  <text x="68" y="424" font-family="Arial" font-size="17" fill="#111827">Eligibility</text>
  <text x="68" y="460" font-family="Arial" font-size="13" fill="#4b5563">Покупки: разрешены</text>
  <text x="68" y="492" font-family="Arial" font-size="13" fill="#4b5563">Offline sales: лимит 150000 RUB</text>
  <text x="68" y="524" font-family="Arial" font-size="13" fill="#4b5563">Bonus accrual: разрешено</text>
  <line x1="68" y1="556" x2="332" y2="556" stroke="#e5e7eb"/>
  <text x="68" y="592" font-family="Arial" font-size="17" fill="#111827">Security flags</text>
  <text x="68" y="628" font-family="Arial" font-size="13" fill="#b45309">Manual review required</text>
  <rect x="392" y="216" width="660" height="310" rx="6" fill="#ffffff" stroke="#d1d5db"/>
  <text x="420" y="252" font-family="Arial" font-size="17" fill="#111827">Sponsor relationships</text>
  <line x1="420" y1="280" x2="1024" y2="280" stroke="#d1d5db"/>
  <text x="420" y="320" font-family="Arial" font-size="13" fill="#111827">Текущий sponsor: SP-035-A / Елена К.</text>
  <text x="420" y="352" font-family="Arial" font-size="13" fill="#111827">Downline summary: 42 партнера, 7 активных команд</text>
  <text x="420" y="384" font-family="Arial" font-size="13" fill="#111827">Дата действия: 2026-04-01 - бессрочно</text>
  <rect x="420" y="422" width="210" height="40" rx="4" fill="#1f6feb"/>
  <text x="458" y="447" font-family="Arial" font-size="13" fill="#ffffff">Перенести партнера</text>
  <rect x="650" y="422" width="210" height="40" rx="4" fill="#f3f4f6" stroke="#cbd5e1"/>
  <text x="682" y="447" font-family="Arial" font-size="13" fill="#374151">История sponsor links</text>
  <rect x="392" y="558" width="660" height="302" rx="6" fill="#ffffff" stroke="#d1d5db"/>
  <text x="420" y="594" font-family="Arial" font-size="17" fill="#111827">Employee bindings и доступы</text>
  <text x="420" y="636" font-family="Arial" font-size="13" fill="#111827">Связанный сотрудник: EMP-035-1001 / Support lead</text>
  <text x="420" y="668" font-family="Arial" font-size="13" fill="#111827">Operational scopes: Region MSK, Service queue, Claims read</text>
  <text x="420" y="700" font-family="Arial" font-size="13" fill="#111827">Role conflict: нет</text>
  <rect x="420" y="740" width="190" height="40" rx="4" fill="#f3f4f6" stroke="#cbd5e1"/>
  <text x="450" y="765" font-family="Arial" font-size="13" fill="#374151">Изменить scopes</text>
  <rect x="1078" y="216" width="322" height="644" rx="6" fill="#ffffff" stroke="#d1d5db"/>
  <text x="1106" y="252" font-family="Arial" font-size="17" fill="#111827">Audit trail</text>
  <text x="1106" y="296" font-family="Arial" font-size="12" fill="#4b5563">01:20 STATUS_CHANGED</text>
  <text x="1106" y="320" font-family="Arial" font-size="12" fill="#111827">reason: MANUAL_REVIEW</text>
  <line x1="1106" y1="348" x2="1372" y2="348" stroke="#e5e7eb"/>
  <text x="1106" y="390" font-family="Arial" font-size="12" fill="#4b5563">00:48 SPONSOR_UPDATED</text>
  <text x="1106" y="414" font-family="Arial" font-size="12" fill="#111827">actor: partner-ops-admin</text>
  <line x1="1106" y1="442" x2="1372" y2="442" stroke="#e5e7eb"/>
  <text x="1106" y="484" font-family="Arial" font-size="12" fill="#4b5563">00:11 PROFILE_VIEWED</text>
  <text x="1106" y="508" font-family="Arial" font-size="12" fill="#111827">PII masked by scope</text>
</svg>
