<svg xmlns="http://www.w3.org/2000/svg" width="1180" height="780" viewBox="0 0 1180 780" role="img" aria-label="Схематичный макет состояний referral-кода и аналитики лендингов">
  <rect x="0" y="0" width="1180" height="780" fill="#ffffff"/>
  <text x="40" y="42" font-family="Arial" font-size="20">Referral, A/B и аналитические состояния</text>
  <rect x="40" y="75" width="340" height="300" fill="none" stroke="#222"/>
  <text x="65" y="110" font-family="Arial" font-size="16">Активный код</text>
  <rect x="65" y="138" width="290" height="52" fill="none" stroke="#777"/>
  <text x="88" y="170" font-family="Arial" font-size="13">Код BOG777 сохранен</text>
  <rect x="65" y="208" width="290" height="64" fill="none" stroke="#777"/>
  <text x="88" y="236" font-family="Arial" font-size="13">Публичное имя спонсора</text>
  <text x="88" y="258" font-family="Arial" font-size="12">Без email, телефона и internal id</text>
  <rect x="65" y="292" width="130" height="42" fill="none" stroke="#777"/>
  <text x="90" y="318" font-family="Arial" font-size="12">Регистрация</text>
  <rect x="215" y="292" width="120" height="42" fill="none" stroke="#777"/>
  <text x="236" y="318" font-family="Arial" font-size="12">Спонсор</text>
  <rect x="420" y="75" width="340" height="300" fill="none" stroke="#222"/>
  <text x="445" y="110" font-family="Arial" font-size="16">Неверный или отключенный код</text>
  <rect x="445" y="138" width="290" height="60" fill="none" stroke="#777"/>
  <text x="468" y="166" font-family="Arial" font-size="13">Локализованное состояние</text>
  <text x="468" y="186" font-family="Arial" font-size="12">STR_MNEMO_REFERRAL_CODE_INVALID</text>
  <rect x="445" y="220" width="290" height="54" fill="none" stroke="#777"/>
  <text x="468" y="252" font-family="Arial" font-size="13">Продолжить без персонализации</text>
  <rect x="445" y="292" width="130" height="42" fill="none" stroke="#777"/>
  <text x="468" y="318" font-family="Arial" font-size="12">Регистрация</text>
  <rect x="595" y="292" width="120" height="42" fill="none" stroke="#777"/>
  <text x="620" y="318" font-family="Arial" font-size="12">Другой код</text>
  <rect x="800" y="75" width="340" height="300" fill="none" stroke="#222"/>
  <text x="825" y="110" font-family="Arial" font-size="16">A/B variant</text>
  <rect x="825" y="138" width="290" height="46" fill="none" stroke="#777"/>
  <text x="848" y="166" font-family="Arial" font-size="13">variant WELCOME_CASHBACK</text>
  <rect x="825" y="204" width="290" height="110" fill="none" stroke="#777"/>
  <text x="848" y="235" font-family="Arial" font-size="13">Детерминированный список блоков</text>
  <text x="848" y="260" font-family="Arial" font-size="12">Hero, Benefits, Scenario, Disclaimer</text>
  <text x="848" y="285" font-family="Arial" font-size="12">Unknown variant -> DEFAULT</text>
  <rect x="40" y="420" width="520" height="285" fill="none" stroke="#222"/>
  <text x="65" y="455" font-family="Arial" font-size="16">Conversion events</text>
  <rect x="65" y="485" width="470" height="52" fill="none" stroke="#777"/>
  <text x="90" y="517" font-family="Arial" font-size="13">view: landingType, variant, code, campaignId, route</text>
  <rect x="65" y="555" width="470" height="52" fill="none" stroke="#777"/>
  <text x="90" y="587" font-family="Arial" font-size="13">click: CTA type, same context, timestamp</text>
  <rect x="65" y="625" width="470" height="52" fill="none" stroke="#777"/>
  <text x="90" y="657" font-family="Arial" font-size="13">register / app install / contact sponsor</text>
  <rect x="620" y="420" width="520" height="285" fill="none" stroke="#222"/>
  <text x="645" y="455" font-family="Arial" font-size="16">Устойчивость</text>
  <rect x="645" y="485" width="470" height="52" fill="none" stroke="#777"/>
  <text x="670" y="517" font-family="Arial" font-size="13">Analytics unavailable -> пользовательский CTA работает</text>
  <rect x="645" y="555" width="470" height="52" fill="none" stroke="#777"/>
  <text x="670" y="587" font-family="Arial" font-size="13">Landing payload error -> локализованное состояние</text>
  <rect x="645" y="625" width="470" height="52" fill="none" stroke="#777"/>
  <text x="670" y="657" font-family="Arial" font-size="13">Referral input sanitized before DOM and URL usage</text>
</svg>
