<svg xmlns="http://www.w3.org/2000/svg" width="390" height="1180" viewBox="0 0 390 1180" role="img" aria-label="Схематичный mobile-макет лендингов бьюти и бизнес-бенефитов">
  <rect x="0" y="0" width="390" height="1180" fill="#ffffff"/>
  <text x="20" y="32" font-family="Arial" font-size="16">Бенефиты mobile</text>
  <rect x="20" y="55" width="350" height="52" fill="none" stroke="#222"/>
  <text x="36" y="86" font-family="Arial" font-size="13">Шапка: меню, логотип, профиль</text>
  <rect x="20" y="128" width="350" height="210" fill="none" stroke="#222"/>
  <text x="38" y="162" font-family="Arial" font-size="15">Hero и основной CTA</text>
  <rect x="38" y="185" width="314" height="42" fill="none" stroke="#777"/>
  <text x="76" y="212" font-family="Arial" font-size="13">Регистрация / активация выгод</text>
  <rect x="38" y="242" width="314" height="42" fill="none" stroke="#777"/>
  <text x="112" y="269" font-family="Arial" font-size="13">Перейти в каталог</text>
  <rect x="38" y="296" width="314" height="26" fill="none" stroke="#777"/>
  <text x="60" y="314" font-family="Arial" font-size="12">Referral-код и campaign-context</text>
  <rect x="20" y="360" width="350" height="152" fill="none" stroke="#222"/>
  <text x="38" y="392" font-family="Arial" font-size="14">Промо-медиа</text>
  <rect x="38" y="415" width="314" height="72" fill="none" stroke="#777"/>
  <text x="124" y="457" font-family="Arial" font-size="13">lazy media area</text>
  <rect x="20" y="535" width="350" height="220" fill="none" stroke="#222"/>
  <text x="38" y="566" font-family="Arial" font-size="14">Вертикальный список выгод</text>
  <rect x="38" y="588" width="314" height="34" fill="none" stroke="#777"/>
  <text x="58" y="611" font-family="Arial" font-size="12">Welcome benefits</text>
  <rect x="38" y="634" width="314" height="34" fill="none" stroke="#777"/>
  <text x="58" y="657" font-family="Arial" font-size="12">Cashback</text>
  <rect x="38" y="680" width="314" height="34" fill="none" stroke="#777"/>
  <text x="58" y="703" font-family="Arial" font-size="12">Referral benefits</text>
  <rect x="38" y="726" width="314" height="18" fill="none" stroke="#777"/>
  <text x="58" y="740" font-family="Arial" font-size="11">Не изменяет высоту соседних блоков</text>
  <rect x="20" y="780" width="350" height="172" fill="none" stroke="#222"/>
  <text x="38" y="812" font-family="Arial" font-size="14">Сценарный блок</text>
  <text x="38" y="842" font-family="Arial" font-size="12">Beauty / Business / Member / VIP / App</text>
  <rect x="38" y="868" width="314" height="42" fill="none" stroke="#777"/>
  <text x="104" y="895" font-family="Arial" font-size="13">Контекстный CTA</text>
  <rect x="20" y="978" width="350" height="92" fill="none" stroke="#222"/>
  <text x="38" y="1010" font-family="Arial" font-size="14">Дисклеймеры и SEO links</text>
  <text x="38" y="1040" font-family="Arial" font-size="12">Текст переносится, не перекрывает CTA</text>
  <rect x="20" y="1095" width="350" height="54" fill="none" stroke="#222"/>
  <text x="38" y="1128" font-family="Arial" font-size="13">Footer и legal navigation</text>
</svg>
