<svg xmlns="http://www.w3.org/2000/svg" width="1440" height="980" viewBox="0 0 1440 980" role="img" aria-labelledby="title desc">
  <title id="title">Feature 034. SLA supervisor board и аналитика</title>
  <desc id="desc">Схематичный макет supervisor board для контроля SLA, эскалаций, качества решений и сервисной аналитики.</desc>
  <rect width="1440" height="980" fill="#f6f8fb"/>
  <rect x="0" y="0" width="1440" height="64" fill="#182230"/>
  <text x="32" y="40" font-family="Arial" font-size="22" fill="#ffffff">Best Ori Gin Admin</text>
  <text x="1198" y="40" font-family="Arial" font-size="16" fill="#d9e2ec">Супервизор сервиса</text>
  <rect x="0" y="64" width="248" height="916" fill="#263244"/>
  <text x="38" y="156" font-family="Arial" font-size="15" fill="#cbd5e1">Очередь</text>
  <rect x="20" y="184" width="208" height="42" rx="6" fill="#3b82f6"/>
  <text x="38" y="211" font-family="Arial" font-size="15" fill="#ffffff">SLA board</text>
  <text x="38" y="258" font-family="Arial" font-size="15" fill="#cbd5e1">Quality review</text>
  <text x="38" y="298" font-family="Arial" font-size="15" fill="#cbd5e1">Аналитика</text>
  <text x="38" y="338" font-family="Arial" font-size="15" fill="#cbd5e1">Экспорт</text>

  <text x="280" y="112" font-family="Arial" font-size="28" font-weight="700" fill="#111827">SLA board и сервисная аналитика</text>
  <text x="280" y="142" font-family="Arial" font-size="15" fill="#667085">Контроль просрочек, эскалаций, override-решений и качества обработки претензий</text>

  <rect x="280" y="170" width="260" height="110" rx="8" fill="#ffffff" stroke="#d0d5dd"/>
  <text x="304" y="206" font-family="Arial" font-size="14" fill="#475467">Всего активных</text>
  <text x="304" y="248" font-family="Arial" font-size="34" font-weight="700" fill="#111827">184</text>
  <rect x="564" y="170" width="260" height="110" rx="8" fill="#ffffff" stroke="#d0d5dd"/>
  <text x="588" y="206" font-family="Arial" font-size="14" fill="#475467">At risk</text>
  <text x="588" y="248" font-family="Arial" font-size="34" font-weight="700" fill="#b45309">27</text>
  <rect x="848" y="170" width="260" height="110" rx="8" fill="#ffffff" stroke="#d0d5dd"/>
  <text x="872" y="206" font-family="Arial" font-size="14" fill="#475467">Breached</text>
  <text x="872" y="248" font-family="Arial" font-size="34" font-weight="700" fill="#b91c1c">9</text>
  <rect x="1132" y="170" width="264" height="110" rx="8" fill="#ffffff" stroke="#d0d5dd"/>
  <text x="1156" y="206" font-family="Arial" font-size="14" fill="#475467">Avg resolution</text>
  <text x="1156" y="248" font-family="Arial" font-size="34" font-weight="700" fill="#111827">31ч</text>

  <rect x="280" y="312" width="690" height="594" rx="8" fill="#ffffff" stroke="#d0d5dd"/>
  <text x="304" y="346" font-family="Arial" font-size="18" font-weight="700" fill="#111827">Эскалации и SLA breach</text>
  <rect x="304" y="368" width="642" height="40" fill="#eef2f7"/>
  <text x="320" y="393" font-family="Arial" font-size="13" font-weight="700" fill="#344054">Кейс</text>
  <text x="438" y="393" font-family="Arial" font-size="13" font-weight="700" fill="#344054">Очередь</text>
  <text x="566" y="393" font-family="Arial" font-size="13" font-weight="700" fill="#344054">SLA</text>
  <text x="690" y="393" font-family="Arial" font-size="13" font-weight="700" fill="#344054">Owner</text>
  <text x="816" y="393" font-family="Arial" font-size="13" font-weight="700" fill="#344054">Действие</text>
  <rect x="304" y="408" width="642" height="64" fill="#fef2f2" stroke="#fecaca"/>
  <text x="320" y="444" font-family="Arial" font-size="14" fill="#111827">CLM-034-1007</text>
  <text x="438" y="444" font-family="Arial" font-size="14" fill="#111827">Повреждения</text>
  <text x="566" y="444" font-family="Arial" font-size="14" fill="#b91c1c">BREACHED</text>
  <text x="690" y="444" font-family="Arial" font-size="14" fill="#111827">Ирина С.</text>
  <text x="816" y="444" font-family="Arial" font-size="14" fill="#2563eb">Override</text>
  <rect x="304" y="472" width="642" height="64" fill="#fff7ed" stroke="#fed7aa"/>
  <text x="320" y="508" font-family="Arial" font-size="14" fill="#111827">CLM-034-1011</text>
  <text x="438" y="508" font-family="Arial" font-size="14" fill="#111827">Доставка</text>
  <text x="566" y="508" font-family="Arial" font-size="14" fill="#b45309">AT_RISK</text>
  <text x="690" y="508" font-family="Arial" font-size="14" fill="#111827">-</text>
  <text x="816" y="508" font-family="Arial" font-size="14" fill="#2563eb">Назначить</text>
  <rect x="304" y="536" width="642" height="64" fill="#fff7ed" stroke="#fed7aa"/>
  <text x="320" y="572" font-family="Arial" font-size="14" fill="#111827">CLM-034-1014</text>
  <text x="438" y="572" font-family="Arial" font-size="14" fill="#111827">Возврат</text>
  <text x="566" y="572" font-family="Arial" font-size="14" fill="#b45309">AT_RISK</text>
  <text x="690" y="572" font-family="Arial" font-size="14" fill="#111827">Петр М.</text>
  <text x="816" y="572" font-family="Arial" font-size="14" fill="#2563eb">Эскалация</text>

  <rect x="998" y="312" width="398" height="594" rx="8" fill="#ffffff" stroke="#d0d5dd"/>
  <text x="1022" y="346" font-family="Arial" font-size="18" font-weight="700" fill="#111827">Аналитика периода</text>
  <text x="1022" y="382" font-family="Arial" font-size="14" fill="#475467">Период: 01.04.2026 - 28.04.2026</text>
  <rect x="1022" y="414" width="330" height="42" rx="4" fill="#f9fafb" stroke="#cbd5e1"/>
  <text x="1040" y="441" font-family="Arial" font-size="13" fill="#344054">Фильтр: очередь, оператор, склад, проблема</text>
  <text x="1022" y="498" font-family="Arial" font-size="15" font-weight="700" fill="#111827">Ключевые разрезы</text>
  <rect x="1022" y="522" width="330" height="34" fill="#eff6ff" stroke="#bfdbfe"/>
  <text x="1040" y="545" font-family="Arial" font-size="13" fill="#344054">DAMAGED_ITEM: 43 кейса</text>
  <rect x="1022" y="568" width="286" height="34" fill="#eff6ff" stroke="#bfdbfe"/>
  <text x="1040" y="591" font-family="Arial" font-size="13" fill="#344054">DELIVERY_LOST: 31 кейс</text>
  <rect x="1022" y="614" width="238" height="34" fill="#eff6ff" stroke="#bfdbfe"/>
  <text x="1040" y="637" font-family="Arial" font-size="13" fill="#344054">WRONG_ITEM: 22 кейса</text>
  <line x1="1022" y1="682" x2="1352" y2="682" stroke="#e5e7eb"/>
  <text x="1022" y="716" font-family="Arial" font-size="15" font-weight="700" fill="#111827">Действия супервизора</text>
  <rect x="1022" y="740" width="150" height="36" rx="4" fill="#2563eb"/>
  <text x="1048" y="763" font-family="Arial" font-size="13" fill="#ffffff">Назначить</text>
  <rect x="1188" y="740" width="164" height="36" rx="4" fill="#ffffff" stroke="#cbd5e1"/>
  <text x="1218" y="763" font-family="Arial" font-size="13" fill="#344054">Экспорт</text>
  <rect x="1022" y="792" width="150" height="36" rx="4" fill="#ffffff" stroke="#cbd5e1"/>
  <text x="1058" y="815" font-family="Arial" font-size="13" fill="#344054">Override</text>
  <rect x="1188" y="792" width="164" height="36" rx="4" fill="#ffffff" stroke="#cbd5e1"/>
  <text x="1204" y="815" font-family="Arial" font-size="13" fill="#344054">Quality review</text>
</svg>
