<svg xmlns="http://www.w3.org/2000/svg" width="1000" height="720" viewBox="0 0 1000 720">
  <title>Feature 004. Пустая выдача и рекомендации</title>
  <rect x="20" y="20" width="960" height="680" fill="none" stroke="#222"/>
  <text x="40" y="54" font-family="Arial" font-size="18">/search empty state</text>

  <rect x="40" y="76" width="920" height="56" fill="none" stroke="#222"/>
  <text x="58" y="110" font-family="Arial" font-size="14">Навигация и корзина</text>

  <rect x="40" y="154" width="920" height="76" fill="none" stroke="#222"/>
  <text x="58" y="184" font-family="Arial" font-size="14">Поисковая строка с текущим запросом</text>
  <rect x="58" y="196" width="700" height="24" fill="none" stroke="#222"/>
  <rect x="778" y="196" width="90" height="24" fill="none" stroke="#222"/>
  <text x="798" y="213" font-family="Arial" font-size="11">Найти</text>
  <rect x="884" y="196" width="60" height="24" fill="none" stroke="#222"/>
  <text x="898" y="213" font-family="Arial" font-size="11">Очистить</text>

  <rect x="170" y="270" width="660" height="150" fill="none" stroke="#222"/>
  <text x="210" y="315" font-family="Arial" font-size="16">Пустая выдача: локализованное сообщение STR_MNEMO_CATALOG_SEARCH_EMPTY</text>
  <text x="210" y="350" font-family="Arial" font-size="14">Подсказки: изменить запрос, убрать фильтры, посмотреть популярные категории</text>
  <rect x="210" y="374" width="160" height="26" fill="none" stroke="#222"/>
  <text x="230" y="392" font-family="Arial" font-size="12">Сбросить фильтры</text>

  <rect x="40" y="460" width="920" height="200" fill="none" stroke="#222"/>
  <text x="58" y="492" font-family="Arial" font-size="15">Рекомендованные товары</text>
  <rect x="58" y="514" width="200" height="120" fill="none" stroke="#222"/>
  <text x="78" y="580" font-family="Arial" font-size="12">Рекомендация 1</text>
  <rect x="288" y="514" width="200" height="120" fill="none" stroke="#222"/>
  <text x="308" y="580" font-family="Arial" font-size="12">Рекомендация 2</text>
  <rect x="518" y="514" width="200" height="120" fill="none" stroke="#222"/>
  <text x="538" y="580" font-family="Arial" font-size="12">Рекомендация 3</text>
  <rect x="748" y="514" width="190" height="120" fill="none" stroke="#222"/>
  <text x="768" y="580" font-family="Arial" font-size="12">Рекомендация 4</text>
</svg>
