<svg xmlns="http://www.w3.org/2000/svg" width="1440" height="960" viewBox="0 0 1440 960" role="img" aria-label="Схематичный макет админского workspace цен и промо">
  <title>Feature 031 - workspace цен и промо</title>
  <rect x="0" y="0" width="1440" height="960" fill="#ffffff"/>
  <rect x="32" y="24" width="1376" height="72" fill="none" stroke="#222222"/>
  <text x="56" y="68" font-family="Arial" font-size="24">Цены и промо</text>
  <text x="1120" y="68" font-family="Arial" font-size="14">Роль: Pricing manager</text>

  <rect x="32" y="120" width="232" height="792" fill="none" stroke="#222222"/>
  <text x="56" y="156" font-family="Arial" font-size="16">Навигация админки</text>
  <text x="56" y="196" font-family="Arial" font-size="14">Price lists</text>
  <text x="56" y="228" font-family="Arial" font-size="14">Цены</text>
  <text x="56" y="260" font-family="Arial" font-size="14">Promo prices</text>
  <text x="56" y="292" font-family="Arial" font-size="14">Segment rules</text>
  <text x="56" y="324" font-family="Arial" font-size="14">Promotions</text>
  <text x="56" y="356" font-family="Arial" font-size="14">Import / export</text>
  <text x="56" y="388" font-family="Arial" font-size="14">Audit</text>

  <rect x="296" y="120" width="1112" height="96" fill="none" stroke="#222222"/>
  <text x="320" y="156" font-family="Arial" font-size="16">Фильтры: статус, кампания, страна, валюта, канал, период, поиск по коду/SKU</text>
  <rect x="320" y="172" width="144" height="28" fill="none" stroke="#222222"/>
  <rect x="480" y="172" width="160" height="28" fill="none" stroke="#222222"/>
  <rect x="656" y="172" width="160" height="28" fill="none" stroke="#222222"/>
  <rect x="832" y="172" width="184" height="28" fill="none" stroke="#222222"/>
  <rect x="1032" y="168" width="164" height="36" fill="none" stroke="#222222"/>
  <text x="1052" y="192" font-family="Arial" font-size="14">Dry-run импорт</text>
  <rect x="1212" y="168" width="160" height="36" fill="none" stroke="#222222"/>
  <text x="1236" y="192" font-family="Arial" font-size="14">Создать price list</text>

  <rect x="296" y="240" width="1112" height="392" fill="none" stroke="#222222"/>
  <text x="320" y="276" font-family="Arial" font-size="16">Таблица price lists</text>
  <line x1="320" y1="304" x2="1372" y2="304" stroke="#222222"/>
  <text x="320" y="336" font-family="Arial" font-size="14">priceListCode</text>
  <text x="528" y="336" font-family="Arial" font-size="14">Campaign</text>
  <text x="704" y="336" font-family="Arial" font-size="14">Currency</text>
  <text x="852" y="336" font-family="Arial" font-size="14">Active window</text>
  <text x="1084" y="336" font-family="Arial" font-size="14">Status</text>
  <text x="1232" y="336" font-family="Arial" font-size="14">Actions</text>
  <line x1="320" y1="360" x2="1372" y2="360" stroke="#222222"/>
  <text x="320" y="396" font-family="Arial" font-size="14">PL-RU-2026-05</text>
  <text x="528" y="396" font-family="Arial" font-size="14">CAM-2026-05</text>
  <text x="704" y="396" font-family="Arial" font-size="14">RUB</text>
  <text x="852" y="396" font-family="Arial" font-size="14">01.05 - 21.05</text>
  <text x="1084" y="396" font-family="Arial" font-size="14">DRAFT</text>
  <text x="1232" y="396" font-family="Arial" font-size="14">edit, publish</text>
  <line x1="320" y1="424" x2="1372" y2="424" stroke="#222222"/>
  <text x="320" y="460" font-family="Arial" font-size="14">PL-RU-2026-04</text>
  <text x="528" y="460" font-family="Arial" font-size="14">CAM-2026-04</text>
  <text x="704" y="460" font-family="Arial" font-size="14">RUB</text>
  <text x="852" y="460" font-family="Arial" font-size="14">10.04 - 30.04</text>
  <text x="1084" y="460" font-family="Arial" font-size="14">ACTIVE</text>
  <text x="1232" y="460" font-family="Arial" font-size="14">view, archive</text>

  <rect x="296" y="656" width="540" height="256" fill="none" stroke="#222222"/>
  <text x="320" y="692" font-family="Arial" font-size="16">Детали price list</text>
  <text x="320" y="728" font-family="Arial" font-size="14">Код, название, страна, валюта, канал</text>
  <text x="320" y="760" font-family="Arial" font-size="14">Campaign binding и 21-дневное окно</text>
  <text x="320" y="792" font-family="Arial" font-size="14">Base prices, promo prices, segment rules</text>
  <text x="320" y="824" font-family="Arial" font-size="14">Preflight: overlaps, missing PIM, currency mismatch</text>
  <rect x="864" y="656" width="544" height="256" fill="none" stroke="#222222"/>
  <text x="888" y="692" font-family="Arial" font-size="16">Сводка публикации</text>
  <text x="888" y="728" font-family="Arial" font-size="14">Готовность каталога, корзины и checkout</text>
  <text x="888" y="760" font-family="Arial" font-size="14">Warnings: period overlap, margin threshold</text>
  <text x="888" y="792" font-family="Arial" font-size="14">Audit: latest import, publish, pause events</text>
  <rect x="888" y="824" width="180" height="36" fill="none" stroke="#222222"/>
  <text x="912" y="848" font-family="Arial" font-size="14">Publish</text>
</svg>
